<?xml version="1.0" encoding="utf-8"?>
<svg version="1.1" id="logo" xmlns="http://www.w3.org/2000/svg" xmlns:xlink="http://www.w3.org/1999/xlink" x="0px" y="0px"
	 viewBox="0 0 643.2 221.6" style="enable-background:new 0 0 643.2 221.6;" xml:space="preserve">
<style type="text/css">
	.st0{clip-path:url(#SVGID_00000076572454740544623010000012123937010169780102_);}
	.st1{clip-path:url(#SVGID_00000071532298081459347990000016182560479966151345_);}

		.st2{clip-path:url(#SVGID_00000029757406757015728860000014693880404883195533_);fill:none;stroke:#000000;stroke-width:1.377;stroke-linecap:round;}

		.st3{clip-path:url(#SVGID_00000073692533091597583910000000927874247907403945_);fill:none;stroke:#000000;stroke-width:1.377;stroke-linecap:round;}
	.st4{fill:none;stroke:#000000;stroke-width:0.75;stroke-linecap:round;}
	.st5{fill:none;stroke:#000000;stroke-width:1.377;stroke-linecap:round;}

		.st6{clip-path:url(#SVGID_00000069391559230370995500000014087701762873860993_);fill:none;stroke:#000000;stroke-width:1.377;stroke-linecap:round;}
</style>
<g>
	<g>
		<defs>
			<rect id="SVGID_1_" x="0.8" y="-1.1" width="638.8" height="222.7"/>
		</defs>
		<clipPath id="SVGID_00000089540533606486373290000010830315542213257616_">
			<use xlink:href="#SVGID_1_"  style="overflow:visible;"/>
		</clipPath>
		<path style="clip-path:url(#SVGID_00000089540533606486373290000010830315542213257616_);" d="M530.5,108.2
			c-0.1-1.1-0.7-1.9-1.6-2.3c-0.4-0.2-0.8-0.2-1.2-0.2c-0.8,0-1.6,0.2-2.4,0.7c-1.1,0.6-2.3,1.6-3.4,2.8c-2,2.3-3.7,5.5-3.7,8.9
			c0,1.7,0.4,3.5,1.6,5.2c1.3,2,3.5,2.8,6,2.8c9.8,0,26-11.6,26.1-11.7c0.3-0.2,0.5-0.5,0.5-0.8c0-0.7-0.7-1.4-1.4-1.4
			c-0.2,0-0.5,0.1-0.7,0.2c-0.1,0.1-16.6,12.5-24.9,12.5c-1.7,0-3-0.5-3.8-1.7c-0.7-1.1-1-2.8-1-4.2c0-0.4,0.1-0.8,0.1-1.2
			c1.7-0.7,9.8-3.9,9.8-8.9C530.6,108.6,530.5,108.4,530.5,108.2 M521.6,114.6c2.8-3.6,3.9-5.8,5.1-6c0.1,0,0.2,0.1,0.2,0.2
			C526.9,109.4,525.5,111.3,521.6,114.6 M483.4,95.4c-0.2-0.1-0.3-0.1-0.5-0.1c-1,0-2,0.8-2.5,2.1c-0.2,0.4-0.2,0.8-0.2,1.3
			c0,1,0.5,1.9,1.3,2.2c0.2,0.1,0.4,0.1,0.5,0.1c1,0,2-0.8,2.4-2.1c0.2-0.4,0.2-0.8,0.2-1.3C484.6,96.5,484.2,95.7,483.4,95.4
			 M481.2,109.4c0.1-0.2,0.1-0.4,0.1-0.5c0-1.3-1.3-2.2-2.5-2.2c-0.9,0-1.7,0.4-2.2,1.4c-1.1,1.9-3.1,7-3.1,11.1
			c0,2.3,0.6,4.3,2.3,5.4c0.5,0.7,1.7,0.9,3.2,0.9c10,0,37.6-12,37.7-12c0.1-0.1,0.1-0.2,0.1-0.4c0-0.6-0.8-1.4-1.9-1.4
			c-0.4,0-0.8,0.1-1.3,0.5c0,0-26.6,11.5-33.6,11.5c-0.6,0-1.1-0.1-1.4-0.3c-0.8-0.5-1.2-1.6-1.2-2.8
			C477.4,116.4,481.2,109.4,481.2,109.4 M437.4,128.8c-0.3,0-0.5,0.1-0.7,0.1c-1.1,0-1.3-0.4-1.6-0.7c-0.1-0.1-0.2-0.2-0.2-0.4
			c0-2,9.2-8,14.4-9.8C447.2,122.5,442.6,128.3,437.4,128.8 M435.1,103.3v-0.2c0-0.8-1-1.3-2-1.3c-1.1,0-2.3,0.6-2.5,2l0.2,3.9
			c-5.5,20.4-9.7,35.7-13.7,55.9c-0.1,0.1-0.1,0.2-0.1,0.4c0,0.9,1,1.2,1.7,1.2c0.6,0,1.2-0.2,1.3-0.4v-0.4c0-0.5-0.1-1.2-0.1-1.7
			c0-0.2,0-0.5,0.1-0.7c3.1-12.5,14.5-55.9,25.2-55.9c1,0,2,0.4,2.9,1.1c1.4,1,2,4.4,2,6.7c0,0.6-0.1,1.1-0.1,1.6
			c-0.1,0.1-0.1,0.3-0.2,0.4c-1.8,1-16.7,8-16.7,12.1c0,0.5,0.2,1.1,0.8,1.5c0.7,0.5,1.6,1,3.2,1c0.3,0,0.7,0,1.1-0.1
			c6.8-0.7,12.3-8,14.3-13.8c4.2-1.5,7.9-2.2,11.8-2.2c1.6,0,3.1,0.1,4.7,0.3h0.1c0.7,0,1.3-1,1.3-1.7c0-0.5-0.2-0.9-0.7-1
			c-0.7-0.1-1.4-0.1-2-0.1c-5,0-10,1.3-15,2.9c0.1-0.7,0.2-1.6,0.2-2.5c0-2.9-0.9-6.3-3.2-7.9c-1-0.4-1.9-0.5-2.8-0.5
			c-9.8,0-17.3,20.6-19.2,24.9L435.1,103.3z M387.5,111.7c-3.8,5-7.4,7.9-8.5,7.9c-0.2,0-0.4-0.1-0.4-0.3c0-1.4,5-7.9,7.9-7.9
			C386.9,111.4,387.2,111.5,387.5,111.7 M389.8,113.3l0.2,0.5c0.2,0.1,0.5,0.2,0.7,0.2c0.7,0,1.4-0.4,1.9-1.1v-0.2
			c0-0.4,0-1.1-0.2-1.8c1.4-1.3,2.3-2.2,2.3-2.2v0.1c0,0.5-0.8,2.6-1.1,4.9c-0.4,1.7-0.6,3.1-0.6,4.3c0,4.5,2.7,6.1,6.5,6.1
			c9.3,0,25.4-9.4,26.1-10.4c0.3-0.4,0.4-0.7,0.4-1.1c0-0.7-0.4-1.1-0.9-1.1c-0.4,0-0.8,0.2-1.1,1c-2.1,2.6-16.2,10.7-23.8,10.7
			c-2.9,0-4.9-1.1-4.9-4.3c0-1.2,0.3-2.7,1-4.5c1-2.6,1.5-4.6,1.5-6c0-1.3-0.4-2.1-1.2-2.2c-0.1-0.1-0.3-0.1-0.5-0.1
			c-1.1,0-3.2,1.5-5,3c-0.9-0.9-2.3-1.5-4.1-1.5c-1,0-2,0.1-3.2,0.5c-4.6,1.4-8.3,5.9-10.1,9.7c-0.6,1.2-1,2.4-1.1,3.4
			c-0.1,0.3-0.1,0.6-0.1,0.9c0,0.8,0.2,1.6,0.7,2.2c0.4,0.5,0.9,0.8,1.6,1c0.1,0,0.2,0.1,0.3,0.1c2.6,0,8-5,12.7-9.5
			C388.6,114.4,388.9,114.1,389.8,113.3 M336.8,106.3v-0.1c0-1.1-1.1-1.7-2.3-1.7c-1,0-1.9,0.4-2.3,1.6l-5.1,21.3
			c0,0.1-0.1,0.1-0.1,0.2c0,0.6,1.2,1,2.3,1c0.9,0,1.7-0.3,1.7-1v-0.1c0.1-0.1,7.9-18.8,12.2-18.8c0.4,0,0.8,0.2,1.2,0.7
			c3,4.2,10.7,5.3,17.3,5.3c5.3,0,9.9-0.7,10.2-1c0.5-0.1,0.9-0.7,0.9-1.1c0-0.2-0.1-0.4-0.5-0.4c-0.1,0-0.4,0.1-0.6,0.1
			c-0.1,0-0.7,0.5-1.4,0.6c-1.3,0.1-3.8,0.2-6.7,0.2c-6.7,0-15.5-0.9-17.7-5.8c-1-1.3-2.1-1.9-3.4-1.9c-2.9,0-6.3,3.2-8.6,8.1
			L336.8,106.3z M306.1,108.2c-0.1-1.1-0.7-1.9-1.6-2.3c-0.4-0.2-0.8-0.2-1.2-0.2c-0.8,0-1.6,0.2-2.4,0.7c-1.1,0.6-2.3,1.6-3.4,2.8
			c-2,2.3-3.7,5.5-3.7,8.9c0,1.7,0.4,3.5,1.6,5.2c1.3,2,3.5,2.8,6,2.8c9.8,0,26-11.6,26.1-11.7c0.3-0.2,0.5-0.5,0.5-0.8
			c0-0.7-0.7-1.4-1.4-1.4c-0.2,0-0.5,0.1-0.7,0.2c-0.1,0.1-16.6,12.5-24.9,12.5c-1.7,0-3-0.5-3.8-1.7c-0.7-1.1-1-2.8-1-4.2
			c0-0.4,0.1-0.8,0.1-1.2c1.7-0.7,9.8-3.9,9.8-8.9C306.2,108.6,306.1,108.4,306.1,108.2 M297.2,114.6c2.8-3.6,3.9-5.8,5.1-6
			c0.1,0,0.2,0.1,0.2,0.2C302.5,109.4,301.1,111.3,297.2,114.6 M276.2,65.6c-0.4-0.4-0.9-0.6-1.4-0.6c-1.9,0-4,2.5-4.8,3.7
			c-5.1,7.3-12.2,25.5-17.4,39.6c-0.3,0.7-1.9,2.2-2.3,3.3c-0.1,0.4-0.2,0.8-0.2,1.3c0,0.7,0.2,1.4,0.2,2c0,0.2-0.1,0.4-0.1,0.7
			c-2.5,7.6-3.7,13-4.1,18v0.3c0,0.7,0.6,1.3,1.3,1.3c0.4,0,0.9-0.4,1.1-1.1c1.2-4.7,16.7-23.4,19.5-23.4c0.2,0,0.3,0.1,0.4,0.2v0.2
			c0,1.4-0.8,4.7-0.8,7.8c0,2.3,0.4,4.5,2,5.6c0.8,0.5,1.9,0.8,3,0.8c1.9,0,4.3-0.7,6.7-1.9c4.4-2.1,9.3-5.8,13.2-9.5
			c0.2-0.3,0.3-0.6,0.3-0.9c0-0.7-0.5-1.2-1.1-1.2c-0.3,0-0.5,0.1-0.8,0.4c-3.8,3.5-8.5,7-12.7,9c-2.5,1.2-4.9,2.4-6.5,2.4
			c-0.5,0-0.8-0.1-1.1-0.3c-0.7-0.5-1-1.7-1-3.1c0-3.1,1.1-7.4,1.1-9.4c0-0.4,0-0.7-0.1-0.8c-0.7-1.3-1.6-1.8-2.7-1.8
			c-5.6,0-15.5,14.3-17.1,16.8c1.1-4.2,2.3-7.9,3.8-12.4l0.3-0.8c0.7,0,22.2-32.5,22.2-43.4C277,67.1,276.8,66.2,276.2,65.6
			 M256.4,105c2.2-5.9,11.2-30.1,15.2-35.7c1-1.4,2-2,2.3-2c0.2,0.2,0.3,0.6,0.3,1.1C274.2,74.1,262.5,95.6,256.4,105 M200.5,88.6
			c0-1.4-1.4-1.7-2.3-1.7h-0.4c-0.8,0-2.1,0.3-2.1,1.1c0,0.1,0.1,0.2,0.1,0.4c0.4,0.9,5.3,1.2,12.1,1.2c8.8,0,20.6-0.4,30.3-0.5
			c-8.3,19.7-15.7,43.4-15.7,57.7c0,6.3,1.4,10.8,4.9,12.3c0.1,0.1,0.2,0.1,0.4,0.1c0.7,0,1.2-0.7,1.2-1.4c0-0.5-0.3-1-1-1
			c-3.4-0.3-4.7-3.6-4.7-8.5c0-16.7,15.3-52.7,20.2-59.5c13.9-1.1,42-2.3,42-2.3c-0.1,0.2-0.2,0.5-0.2,0.7c0,0.8,0.7,1.6,1.5,1.6
			c0.2,0,0.5-0.1,0.7-0.2c0,0,5-1.6,5-3.8c0-0.3-0.1-0.6-0.4-1c-0.1-0.1-0.4-0.1-0.8-0.1c-6,0-41.6,3.2-46.9,3.5
			c4.3-5.9,16.1-22.2,16.1-29.1c0-1.4-0.5-2.5-1.6-2.9h-0.1c-3.8,0-11.9,14-19.7,32.2c-13.4,1.1-23.6,1.5-30.6,1.5
			C205,88.9,202.3,88.8,200.5,88.6 M246,80.3c0.2-0.5,10.9-22.3,11.8-22.3c0,0,0.1,0.1,0.1,0.1c0,0.2-0.2,0.9-0.5,2
			C255.7,64.3,249,76.6,246,80.3 M199,109.2c0.1,0.1,0.2,0.2,0.4,0.4v0.4c0,3.3-3.5,16.2-6.3,16.2c-0.1,0-0.2,0-0.4-0.1
			c-0.7-0.2-0.8-1-0.8-2c0-2.3,1.1-5.6,1.4-6.4C194.4,115.1,196.8,111,199,109.2 M197.7,107.6c-2.3,1.4-5.5,6.6-6.5,8.8
			c-0.7,1.6-1.8,4.9-1.8,7.6c0,2,0.6,3.8,2.3,4.5c0.4,0.2,0.8,0.2,1.3,0.2c1,0,2-0.4,2.8-0.9c4.5-3.2,6.4-11.3,6.5-16.4
			c1.9,0.8,4,1.4,7.2,1.7c3.1,0.2,5.8,0.4,7.9,0.4c4.9,0,7.3-0.5,7.3-0.5c0.5-0.2,0.8-0.8,0.8-1.4s-0.4-1.1-1-1.1h-0.3
			c0,0.1-3.3,1-9.6,1c-1.7,0-3.6-0.1-5.7-0.2c-4-0.3-6-1.6-7.4-3.1c-0.4-1.6-1.1-2.6-2.2-3c-0.2-0.1-0.4-0.1-0.6-0.1
			c-0.4,0-0.7,0.1-1,0.4c-0.4,0.3-0.5,0.7-0.5,1.1c0,0.2,0,0.5,0.1,0.8C197.6,107.4,197.7,107.5,197.7,107.6 M149.5,156
			c-3.1,8.3-6.8,14.9-8,15.9v-0.2c0-1,0.4-2.8,1-5.1c1-3.6,2.6-8.3,4.8-13.2c1.9-4.3,5.6-12.5,8.1-16.8
			C153.7,142.2,151.3,151.1,149.5,156 M153.2,111.3c-2.2,3.2-5.6,7-10.5,9.4C144.6,118.5,150.6,112.8,153.2,111.3 M156,113.4
			l2.4,0.9c0,0,0.1-0.5,0.1-1.3c0-1-0.2-2.2-1-3.2c2.3-2.5,4.3-4.2,5.1-4.2h0.2c0.1,0,0.1,0.2,0.1,0.5c0,0.6-0.2,1.8-0.5,3.9
			c-0.5,2.9-1.3,6.5-2.3,10.4c-0.6,2.3-1.5,3.8-2.2,6.4c-4.6,6.3-10.7,18.2-13.7,25.1c-2.2,5.1-3.9,9.8-4.9,13.5
			c-0.2,0.8-0.8,2.9-0.8,4.9c0,1.9,0.5,3.6,2.1,4.1c0.1,0.1,0.3,0.1,0.4,0.1c3.5,0,9-14.9,9.8-17c2.8-7.4,7.2-20.1,9.6-28.5
			c3.8-8.3,15.2-15.6,28.3-16.1c0.5-0.5,1-1.1,1-1.5c0-0.4-0.2-0.7-1-0.9c-0.2-0.1-0.5-0.1-0.8-0.1c-5,0-20.8,5.8-26,12.8
			c0.1-0.5,0.8-2.8,1-3.2c1-4,1.5-6.2,2-9.2c0.2-1.3,0.4-2.5,0.4-3.4c0-2.4-0.7-3.7-1.9-4.1c-0.2-0.1-0.4-0.1-0.7-0.1
			c-1.9,0-4.5,2.3-7.4,5.3c-0.4-0.1-0.9-0.1-1.4-0.1s-1.1,0-1.9,0.1c-3.8,0.7-10,6.5-12.7,10.7c-0.7,1.1-1.2,2-1.4,2.8
			c-0.1,0.4-0.2,0.7-0.2,1.1c0,0.8,0.4,1.4,1.2,1.9c0.4,0.2,0.8,0.3,1.3,0.3c0.4,0,0.9-0.1,1.4-0.2c2.9-0.9,7.3-5.8,11.6-10.4
			c0.9-1,1.8-1.9,2.6-2.8c0.2,0.4,0.3,0.9,0.3,1.2C156,113.2,156,113.4,156,113.4 M104.2,106.3v-0.1c0-1.1-1.1-1.7-2.3-1.7
			c-1,0-1.9,0.4-2.3,1.6l-5.1,21.3c0,0.1-0.1,0.1-0.1,0.2c0,0.6,1.2,1,2.3,1c0.9,0,1.7-0.3,1.7-1v-0.1c0.1-0.1,7.9-18.8,12.2-18.8
			c0.4,0,0.8,0.2,1.2,0.7c3,4.2,10.7,5.3,17.3,5.3c5.3,0,9.9-0.7,10.2-1c0.5-0.1,0.9-0.7,0.9-1.1c0-0.2-0.1-0.4-0.5-0.4
			c-0.1,0-0.4,0.1-0.6,0.1c-0.1,0-0.7,0.5-1.4,0.6c-1.3,0.1-3.8,0.2-6.7,0.2c-6.6,0-15.5-0.9-17.7-5.8c-1-1.3-2.1-1.9-3.4-1.9
			c-2.9,0-6.3,3.2-8.6,8.1L104.2,106.3z M55.8,93.2v0.2c-0.1,0-0.1-0.1-0.2-0.4c0.1-0.1,0.1-0.1,0.2-0.1
			C55.8,93,55.8,93.1,55.8,93.2 M64.6,77.2v0.6c0,3.1,1.4,4.1,3.1,4.1c1.9,0,4.1-1.4,4.9-2.6c1.3-2.3,6.4-17,6.4-27.6
			c0-6.4-1.8-11.3-7.4-11.3c-0.5,0-1.1,0-1.7,0.1c-2.6,0.4-5.8,1.6-9.2,3.3c-9.2,4.7-20.1,14.3-26.2,26.5c-1.3,2.6-1.9,5-1.9,7.1
			c0,5.8,4.3,9.5,9.4,12.1c3.2,1.6,6.6,2.6,9.4,3.4c-1.6,0.5-3.4,1.3-5.3,2.2c-8.6,4.5-20.2,13.7-29.4,23.7
			c-9,9.7-15.8,20.4-15.8,28.4c0,0.3,0.1,0.7,0.1,1c0.5,7.1,4.6,9.8,10.8,9.8c23,0,75.3-38.7,83-42.5c0.2-0.1,0.4-0.4,0.4-0.7
			c0-1.1-1.3-3.2-2.5-3.2c-0.2,0-0.5,0.1-0.8,0.3c-6,4.5-58.7,44.7-79.8,44.7c-5,0-8.3-2.3-8.8-7.8V148c0-7.3,6.8-18.1,15.4-27.5
			c9.1-9.8,20.3-18.8,28.7-23.1c3-1.5,5.6-2.5,7.6-2.6c2.5-0.2,3.6-0.7,3.6-1.7v-0.1c-0.1-1.1-1.4-1.5-3.6-2
			c-2.9-0.7-7.6-1.9-11.7-4c-4.2-2.1-7.8-5.2-7.8-10c0-1.7,0.4-3.6,1.5-5.7c5.9-11.7,16.3-20.8,25.1-25.4c3.1-1.6,6-2.6,8.4-3
			c0.4-0.1,0.8-0.1,1.3-0.1c3.7,0,4.9,3,4.9,7c0,7.1-3.8,17.3-5,19.9C69.2,74.5,64.6,77.2,64.6,77.2"/>
	</g>
	<g>
		<defs>
			<rect id="SVGID_00000140710885317935009620000004469277478274560188_" x="0.8" y="-1.1" width="638.8" height="222.7"/>
		</defs>
		<clipPath id="SVGID_00000021821577170462571450000009002121523985454755_">
			<use xlink:href="#SVGID_00000140710885317935009620000004469277478274560188_"  style="overflow:visible;"/>
		</clipPath>
		<path style="clip-path:url(#SVGID_00000021821577170462571450000009002121523985454755_);" d="M477.8,203.4
			c-1.3-0.2-1.9-0.3-2.7-0.3c-2.8,0-4.5,1-6,3.4v-3.1h-1.9c0.2,1.2,0.2,2,0.2,3.5v10.7c0,1.2-0.1,2.1-0.2,3.5h2.2
			c-0.2-1.3-0.2-2.1-0.2-3.5v-7.2c0-1.2,0.4-2.4,1.2-3.4c1.1-1.5,2.5-2.3,4.3-2.3c0.8,0,1.3,0.1,2.6,0.5L477.8,203.4z M439.8,210.8
			c0.3-1.8,0.6-2.7,1.3-3.8c1.1-1.6,2.7-2.5,4.7-2.5c2,0,3.7,0.8,4.8,2.3c0.8,1.1,1.2,2.1,1.4,3.9L439.8,210.8L439.8,210.8z
			 M453.8,212.3c-0.1-2.8-0.5-4.1-1.4-5.7c-1.4-2.3-3.6-3.6-6.5-3.6c-4.8,0-7.9,3.7-7.9,9.3c0,5.7,3.2,9.2,8.2,9.2
			c2.3,0,4.2-0.8,5.8-2.3c0.8-0.7,1.1-1.3,1.8-2.7l-1.6-0.8c-0.4,1.1-0.7,1.5-1.2,2.1c-1.2,1.4-2.8,2.1-4.7,2.1
			c-2.1,0-3.9-0.9-5-2.5c-1-1.4-1.3-2.7-1.4-5.2L453.8,212.3L453.8,212.3z M401.2,203.4h-1.9c0.2,1.2,0.2,2,0.2,3.5v10.7
			c0,1.5-0.1,2.3-0.2,3.5h2.1c-0.2-1.3-0.2-2.1-0.2-3.5V211c0-3.7,2.4-6.4,5.8-6.4c2.7,0,4.2,1.7,4.2,4.9v8.2c0,1.6-0.1,2.4-0.2,3.5
			h2.2c-0.2-1.1-0.2-1.9-0.2-3.5V211c0-3.6,2.4-6.4,5.6-6.4c3,0,4.3,1.5,4.3,4.9v8.2c0,1.6-0.1,2.4-0.2,3.5h2.2
			c-0.2-1.1-0.2-1.9-0.2-3.5v-8.5c0-4.1-1.9-6.1-5.8-6.1c-1.8,0-3.1,0.5-4.4,1.6c-0.7,0.6-1.2,1.3-1.7,2.3c-0.3-1.1-0.5-1.6-1-2.2
			c-1-1.2-2.5-1.8-4.4-1.8c-2.8,0-5.2,1.5-6,3.8c0.1-0.8,0.1-1,0.1-1.3L401.2,203.4L401.2,203.4z M382.7,203.4
			c0.2,1.2,0.2,2,0.2,3.5v10.7c0,1.2-0.1,2.1-0.2,3.5h2.2c-0.2-1.3-0.2-2.1-0.2-3.5V207c0-1.6,0.1-2.4,0.2-3.6L382.7,203.4
			L382.7,203.4z M382.6,198.3h2.5v-2.4h-2.5V198.3z M355.2,210.8c0.3-1.8,0.6-2.7,1.3-3.8c1.1-1.6,2.7-2.5,4.7-2.5
			c2,0,3.7,0.8,4.8,2.3c0.8,1.1,1.2,2.1,1.4,3.9L355.2,210.8L355.2,210.8z M369.2,212.3c-0.1-2.8-0.5-4.1-1.4-5.7
			c-1.4-2.3-3.6-3.6-6.5-3.6c-4.8,0-7.9,3.7-7.9,9.3c0,5.7,3.2,9.2,8.2,9.2c2.3,0,4.2-0.8,5.8-2.3c0.8-0.7,1.1-1.3,1.8-2.7l-1.6-0.8
			c-0.4,1.1-0.7,1.5-1.2,2.1c-1.2,1.4-2.8,2.1-4.7,2.1c-2.1,0-3.9-0.9-5-2.5c-1-1.4-1.3-2.7-1.4-5.2L369.2,212.3L369.2,212.3z
			 M326.8,199.5c0-1.6,0.1-2.4,0.2-3.6h-2.1c0.2,1.2,0.2,2,0.2,3.5v18.2c0,1.5-0.1,2.5-0.2,3.5h2.1c-0.2-1.3-0.2-2.1-0.2-3.5v-6.4
			c0-1.7,1.4-4.2,3.1-5.5c0.9-0.7,2.3-1.2,3.5-1.2c3,0,4.7,1.7,4.7,4.8v8.3c0,1.6-0.1,2.5-0.2,3.5h2.2c-0.2-1.3-0.2-2.1-0.2-3.5
			v-8.5c0-3.8-2.3-6-6.1-6c-3.2,0-5.6,1.7-6.9,4.6c0.1-0.8,0.1-1.3,0.1-1.8L326.8,199.5L326.8,199.5z M311.4,203.3
			c-0.9,0.1-1.4,0.1-3.4,0.1h-5.8c-1.4,0-2.3-0.1-3.5-0.2v2c1.2-0.2,2.3-0.2,3.5-0.2h5.2c0.5,0,0.7,0,1.8-0.1
			c-0.4,0.4-0.6,0.7-1,1.3l-7.9,10.8c-1,1.3-1.5,2-2.2,2.7v1.6c0.9-0.1,1.6-0.1,3.6-0.1h6.9c1.6,0,2.5,0.1,3.5,0.2v-2
			c-1,0.2-1.9,0.2-3.5,0.2h-5.9c-0.6,0-0.6,0-2.5,0.1c0.7-0.8,1.2-1.5,1.4-1.7l7.7-10.5c1.1-1.5,1.3-1.8,2.1-2.7L311.4,203.3
			L311.4,203.3z M283.1,195.9c0.2,1.2,0.2,2,0.2,3.5v18.2c0,1.3-0.1,2.4-0.2,3.5h2.2c-0.2-1.3-0.2-2.1-0.2-3.5v-18.2
			c0-1.6,0.1-2.4,0.2-3.6H283.1z M261.2,204.5c4.1,0,6.7,3,6.7,7.7c0,4.8-2.5,7.8-6.8,7.8s-6.8-2.9-6.8-7.7
			C254.3,207.5,256.9,204.5,261.2,204.5 M261.2,221.5c5.1,0,8.5-3.6,8.5-9.3c0-5.6-3.3-9.2-8.6-9.2c-5.2,0-8.6,3.6-8.6,9.3
			C252.5,218,255.9,221.5,261.2,221.5 M236.6,195.9c0.2,1.2,0.3,2.1,0.3,3.5v7.5h-16.2v-7.6c0-1.5,0.1-2.4,0.3-3.5h-2.3
			c0.2,1.2,0.3,2.1,0.3,3.5v18.2c0,1.5-0.1,2.4-0.3,3.5h2.3c-0.2-1.2-0.3-2-0.3-3.5v-9h16.2v9c0,1.5-0.1,2.4-0.3,3.5h2.3
			c-0.2-1.2-0.3-2-0.3-3.5v-18.3c0-1.5,0.1-2.3,0.3-3.5H236.6z M182,214.3c0,0.8-0.1,1.4-0.2,1.8c-0.2,0.7-0.9,1.5-1.7,2.1
			c-1.5,1.1-3.1,1.7-4.8,1.7c-2.3,0-3.8-1.3-3.8-3.4c0-2.1,1.4-3.6,4-4.2c1.7-0.4,2.9-0.5,6.6-0.6L182,214.3L182,214.3z M182,221.2
			h1.9c-0.2-1.3-0.3-2.1-0.3-3.5v-9.7c0-1.7-0.7-3.1-1.9-4c-1-0.7-2.5-1.1-4.4-1.1c-2.4,0-4.3,0.7-5.5,2c-0.6,0.7-1,1.3-1.5,2.7
			l1.8,0.4c0.3-1,0.6-1.5,1-2c1-1.1,2.5-1.7,4.5-1.7c2.8,0,4.5,1.4,4.5,3.6v2.4c-3.6,0.1-5.1,0.2-7,0.7c-3.5,0.8-5.3,2.7-5.3,5.6
			c0,3,2.1,4.9,5.5,4.9c1.2,0,2.5-0.3,3.6-0.7c1.1-0.5,1.8-1,3.2-2.3L182,221.2L182,221.2z M142.7,203.4h-1.9
			c0.2,1.3,0.3,2.2,0.3,3.5v10.7c0,1.4-0.1,2.3-0.3,3.5h2.2c-0.2-1.3-0.2-2.1-0.2-3.5v-6.5c0-1.7,1.4-4.1,3.1-5.4
			c1-0.8,2.3-1.2,3.4-1.2c3.1,0,4.7,1.7,4.7,5v8.1c0,1.4-0.1,2.2-0.2,3.5h2.2c-0.2-1-0.2-1.9-0.2-3.5v-8.5c0-3.8-2.3-6.1-6.1-6.1
			c-2.3,0-4.1,0.8-5.5,2.4c-0.6,0.7-1,1.2-1.4,2.2c0.1-0.6,0.1-1,0.1-1.5L142.7,203.4L142.7,203.4z M113.3,210.8
			c0.3-1.8,0.6-2.7,1.3-3.8c1.1-1.6,2.6-2.5,4.7-2.5c2,0,3.7,0.8,4.8,2.3c0.9,1.1,1.2,2.1,1.4,3.9L113.3,210.8L113.3,210.8z
			 M127.3,212.3c-0.1-2.8-0.5-4.1-1.4-5.7c-1.4-2.3-3.6-3.6-6.5-3.6c-4.8,0-7.9,3.7-7.9,9.3c0,5.7,3.2,9.2,8.2,9.2
			c2.3,0,4.2-0.8,5.8-2.3c0.8-0.7,1.1-1.3,1.8-2.7l-1.6-0.8c-0.4,1.1-0.6,1.5-1.2,2.1c-1.2,1.4-2.8,2.1-4.7,2.1
			c-2.1,0-3.9-0.9-5-2.5c-1-1.4-1.3-2.7-1.4-5.2L127.3,212.3L127.3,212.3z M96.8,221.2c1.7,0,2.5,0.1,3.5,0.2v-2.1
			c-1.3,0.2-2.1,0.2-3.5,0.2H85.6v-20.1c0-1.5,0.1-2.3,0.3-3.5h-2.3c0.2,1.2,0.3,2.1,0.3,3.5v18c0,1.5-0.1,2.6-0.3,3.8
			c1.1-0.1,2-0.1,3.4-0.1L96.8,221.2L96.8,221.2z"/>
	</g>
	<g>
		<defs>
			<rect id="SVGID_00000109736440281126125500000005908496975555253422_" x="0.8" y="-1.1" width="638.8" height="222.7"/>
		</defs>
		<clipPath id="SVGID_00000026858071518172312650000009420868162987890597_">
			<use xlink:href="#SVGID_00000109736440281126125500000005908496975555253422_"  style="overflow:visible;"/>
		</clipPath>

			<path style="clip-path:url(#SVGID_00000026858071518172312650000009420868162987890597_);fill:none;stroke:#000000;stroke-width:1.377;stroke-linecap:round;" d="
			M522.9,152.1c9.1,2.5,19.1,2.5,28.8-0.6c26.2-8.5,40.5-36.6,32-62.8s-36.6-40.5-62.8-32c-9.7,3.2-17.8,9-23.7,16.5"/>
	</g>
	<g>
		<defs>
			<rect id="SVGID_00000101791761740742729860000009753135362306859450_" x="0.8" y="-1.1" width="638.8" height="222.7"/>
		</defs>
		<clipPath id="SVGID_00000096045274695111313140000002623513975625932185_">
			<use xlink:href="#SVGID_00000101791761740742729860000009753135362306859450_"  style="overflow:visible;"/>
		</clipPath>

			<line style="clip-path:url(#SVGID_00000096045274695111313140000002623513975625932185_);fill:none;stroke:#000000;stroke-width:1.377;stroke-linecap:round;" x1="516.2" y1="43.7" x2="502.9" y2="-0.4"/>
	</g>
</g>
<line class="st4" x1="539.8" y1="41.2" x2="541.7" y2="21.5"/>
<line class="st5" x1="563.7" y1="48.2" x2="584.2" y2="6"/>
<line class="st4" x1="582.6" y1="64.2" x2="597.7" y2="49.4"/>
<g>
	<g>
		<defs>
			<rect id="SVGID_00000039102145290936854300000016602310269228094635_" x="0.8" y="-1.1" width="638.8" height="222.7"/>
		</defs>
		<clipPath id="SVGID_00000008126126865026260280000000203448324051763353_">
			<use xlink:href="#SVGID_00000039102145290936854300000016602310269228094635_"  style="overflow:visible;"/>
		</clipPath>

			<line style="clip-path:url(#SVGID_00000008126126865026260280000000203448324051763353_);fill:none;stroke:#000000;stroke-width:1.377;stroke-linecap:round;" x1="593.9" y1="85.6" x2="639" y2="70.9"/>
	</g>
</g>
<line class="st4" x1="595.8" y1="110" x2="616.8" y2="111.2"/>
<line class="st5" x1="589.2" y1="132.4" x2="632.4" y2="155.1"/>
<line class="st4" x1="575.2" y1="152.6" x2="587.8" y2="167.2"/>
<line class="st4" x1="530.9" y1="167" x2="529.3" y2="186.2"/>
<line class="st4" x1="484" y1="40.6" x2="496.6" y2="55.2"/>
<line class="st5" x1="554.2" y1="163.5" x2="568.5" y2="207.3"/>
</svg>
